HIERARCHY
ROOT Hips
{
	OFFSET 0.000000 0.000000 0.000000
	CHANNELS 6 Xposition Yposition Zposition Xrotation Yrotation Zrotation
	JOINT LeftUpLeg_virtual
	{
		OFFSET 0.000000 0.000000 0.000000
		CHANNELS 3 Xrotation Yrotation Zrotation
		JOINT LeftUpLeg
		{
			OFFSET 15.427100 -6.655098 0.678600
			CHANNELS 3 Xrotation Yrotation Zrotation
			JOINT LeftLeg
			{
				OFFSET 4.081073 -39.591068 13.024000
				CHANNELS 3 Xrotation Yrotation Zrotation
				JOINT LeftFoot
				{
					OFFSET -4.081074 -37.707932 -15.979700
					CHANNELS 3 Xrotation Yrotation Zrotation
					JOINT LeftToeBase
					{
						OFFSET 5.346399 -15.068900 20.645000
						CHANNELS 3 Xrotation Yrotation Zrotation
						JOINT LeftToe_End
						{
							OFFSET 2.754700 0.931300 11.300900
							CHANNELS 3 Xrotation Yrotation Zrotation
							End Site
							{
								OFFSET 0 0 0
							}
						}
					}
				}
			}
		}
	}
	JOINT RightUpLeg_virtual
	{
		OFFSET 0.000000 0.000000 0.000000
		CHANNELS 3 Xrotation Yrotation Zrotation
		JOINT RightUpLeg
		{
			OFFSET -15.569500 -6.655098 0.678600
			CHANNELS 3 Xrotation Yrotation Zrotation
			JOINT RightLeg
			{
				OFFSET -4.081825 -39.591045 13.023800
				CHANNELS 3 Xrotation Yrotation Zrotation
				JOINT RightFoot
				{
					OFFSET 4.081824 -37.707954 -15.979600
					CHANNELS 3 Xrotation Yrotation Zrotation
					JOINT RightToeBase
					{
						OFFSET -5.346400 -15.068900 20.645000
						CHANNELS 3 Xrotation Yrotation Zrotation
						JOINT RightToe_End
						{
							OFFSET -2.754700 0.931300 11.300900
							CHANNELS 3 Xrotation Yrotation Zrotation
							End Site
							{
								OFFSET 0 0 0
							}
						}
					}
				}
			}
		}
	}
	JOINT Spine_virtual
	{
		OFFSET 0.000000 0.000000 0.000000
		CHANNELS 3 Xrotation Yrotation Zrotation
		JOINT Spine
		{
			OFFSET -0.279200 12.230698 -2.892100
			CHANNELS 3 Xrotation Yrotation Zrotation
			JOINT Spine1
			{
				OFFSET -0.232667 10.192268 -1.242267
				CHANNELS 3 Xrotation Yrotation Zrotation
				JOINT Spine1_split
				{
					OFFSET -0.232667 10.192268 -1.242267
					CHANNELS 3 Xrotation Yrotation Zrotation
					JOINT Spine2
					{
						OFFSET -0.232667 10.192268 -1.242267
						CHANNELS 3 Xrotation Yrotation Zrotation
						JOINT Neck_virtual
						{
							OFFSET 0.000000 0.000000 0.000000
							CHANNELS 3 Xrotation Yrotation Zrotation
							JOINT Neck
							{
								OFFSET -0.418800 17.814194 8.416900
								CHANNELS 3 Xrotation Yrotation Zrotation
								JOINT Head
								{
									OFFSET 0.000000 7.031097 3.806800
									CHANNELS 3 Xrotation Yrotation Zrotation
									JOINT HeadTop_End
									{
										OFFSET 0.000000 24.646606 12.978600
										CHANNELS 3 Xrotation Yrotation Zrotation
										End Site
										{
											OFFSET 0 0 0
										}
									}
								}
							}
						}
						JOINT LeftShoulder_virtual
						{
							OFFSET 0.000000 0.000000 0.000000
							CHANNELS 3 Xrotation Yrotation Zrotation
							JOINT LeftShoulder
							{
								OFFSET 8.476499 7.247704 -3.868750
								CHANNELS 3 Xrotation Yrotation Zrotation
								JOINT LeftShoulder_split
								{
									OFFSET 8.476499 7.247704 -3.868750
									CHANNELS 3 Xrotation Yrotation Zrotation
									JOINT LeftArm
									{
										OFFSET 9.308998 -2.777710 0.208600
										CHANNELS 3 Xrotation Yrotation Zrotation
										JOINT LeftForeArm
										{
											OFFSET 29.972298 0.000000 0.000000
											CHANNELS 3 Xrotation Yrotation Zrotation
											JOINT LeftHand
											{
												OFFSET 26.026505 0.000000 0.000000
												CHANNELS 3 Xrotation Yrotation Zrotation
												End Site
												{
													OFFSET 0 0 0
												}
											}
										}
									}
								}
							}
						}
						JOINT RightShoulder_virtual
						{
							OFFSET 0.000000 0.000000 0.000000
							CHANNELS 3 Xrotation Yrotation Zrotation
							JOINT RightShoulder
							{
								OFFSET -7.570500 7.247704 -3.868750
								CHANNELS 3 Xrotation Yrotation Zrotation
								JOINT RightShoulder_split
								{
									OFFSET -7.570500 7.247704 -3.868750
									CHANNELS 3 Xrotation Yrotation Zrotation
									JOINT RightArm
									{
										OFFSET -9.308998 -2.777710 0.208500
										CHANNELS 3 Xrotation Yrotation Zrotation
										JOINT RightForeArm
										{
											OFFSET -29.972300 0.000000 0.000000
											CHANNELS 3 Xrotation Yrotation Zrotation
											JOINT RightHand
											{
												OFFSET -26.026505 0.000000 0.000000
												CHANNELS 3 Xrotation Yrotation Zrotation
												End Site
												{
													OFFSET 0 0 0
												}
											}
										}
									}
								}
							}
						}
					}
				}
			}
		}
	}
}
MOTION
Frames: 9
Frame Time: 0.03333333
-0.184096 89.573395 -0.081436 0.000000 0.000000 0.000000 -7.060206 6.630946 -0.162406 -21.111922 11.723426 16.138323 29.531648 2.378445 5.791414 -2.886777 -12.696696 -9.863364 -2.016659 0.411350 -1.370084 0.000000 0.000000 0.000000 -7.295300 8.434072 -0.025180 6.183270 -9.360479 3.124545 17.864114 -8.228168 -7.220623 -13.443244 -17.717210 6.231413 -6.549456 0.259807 0.352195 0.000000 0.000000 0.000000 -6.811618 6.678145 -0.418356 2.700147 0.694968 3.829551 2.253447 0.536298 2.832596 0.814510 -1.230727 -0.173453 0.000000 0.000000 0.000000 1.659891 0.770531 2.840582 12.338856 -0.777554 -1.340968 3.354547 -10.555280 -7.590720 0.000000 0.000000 0.000000 1.333888 0.787127 2.700056 2.140198 -14.727049 -11.934272 -0.463875 0.134366 -2.461447 4.334932 -3.387933 -70.093198 -1.746986 -1.306368 -0.242076 0.000000 0.000000 0.000000 1.336962 0.524716 2.882495 1.946514 8.872426 18.855471 0.924589 3.882916 -2.026442 24.988513 7.013770 59.093089 0.773361 7.063305 0.583222 0.000000 0.000000 0.000000 
-0.094136 89.801353 -0.012768 0.000000 0.000000 0.000000 -6.683463 5.965132 -0.225223 -20.780946 12.117590 16.053601 28.975445 2.034898 5.603668 -2.968500 -11.706230 -9.833665 -1.928847 0.389196 -1.385254 0.000000 0.000000 0.000000 -6.936103 7.671721 -0.107136 5.579482 -9.399118 2.865740 17.693192 -8.141036 -7.201388 -13.073194 -16.932903 6.288536 -6.535429 0.302401 0.371703 0.000000 0.000000 0.000000 -6.339410 6.148352 -0.465330 2.610007 0.561883 3.836713 2.330150 0.402673 2.819829 0.840775 -1.236989 -0.180646 0.000000 0.000000 0.000000 1.775871 0.598426 2.825958 12.140039 -0.539450 -1.226307 2.511495 -9.413129 -7.005954 0.000000 0.000000 0.000000 1.357511 0.613000 2.651903 2.148617 -14.920772 -12.225586 -0.519788 0.288424 -2.252190 4.691980 -2.329106 -70.307659 -1.666239 -1.070875 -0.138538 0.000000 0.000000 0.000000 1.439270 0.359300 2.892031 2.011752 8.208888 18.642405 0.616145 3.772699 -2.145516 27.015391 7.085832 58.241235 0.770675 6.904691 0.501043 0.000000 0.000000 0.000000 
-0.014338 90.034073 0.036098 0.000000 0.000000 0.000000 -6.308953 5.048233 -0.358715 -20.327616 12.479087 16.046030 28.425320 1.741804 5.363272 -3.228309 -10.435157 -9.815594 -1.820426 0.366314 -1.416640 0.000000 0.000000 0.000000 -6.566908 6.712667 -0.254346 4.883053 -9.482781 2.602789 17.530761 -8.041919 -7.106464 -12.692412 -15.897375 6.305820 -6.465145 0.345627 0.411926 0.000000 0.000000 0.000000 -5.874446 5.383240 -0.582996 2.558759 0.458616 3.847739 2.429314 0.294006 2.824081 0.876129 -1.093098 -0.170150 0.000000 0.000000 0.000000 1.884647 0.443216 2.836884 11.874855 -0.287295 -1.096148 1.682433 -8.175033 -6.417411 0.000000 0.000000 0.000000 1.386020 0.463493 2.612710 2.160419 -15.065592 -12.454956 -0.660829 0.519163 -2.064641 5.045538 -1.491723 -70.606869 -1.613990 -0.826620 -0.077788 0.000000 0.000000 0.000000 1.543018 0.222703 2.913534 2.046111 7.815559 18.491216 0.282392 3.600127 -2.157073 27.612093 6.479095 57.693044 0.658781 6.285335 0.508403 0.000000 0.000000 0.000000 
0.045402 90.258194 0.053314 0.000000 0.000000 0.000000 -5.938807 3.975997 -0.550711 -19.802626 12.765159 16.089701 27.901756 1.478026 5.098495 -3.643992 -8.956684 -9.813239 -1.722140 0.343625 -1.463746 0.000000 0.000000 0.000000 -6.192449 5.637916 -0.455588 4.137187 -9.606780 2.358765 17.356298 -7.965370 -6.944104 -12.297400 -14.671226 6.265525 -6.354695 0.380326 0.469118 0.000000 0.000000 0.000000 -5.439085 4.420653 -0.767367 2.536745 0.386396 3.857751 2.547989 0.209957 2.839748 0.888770 -0.885074 -0.146862 0.000000 0.000000 0.000000 1.985415 0.318903 2.865491 11.527583 -0.028351 -0.944824 0.866599 -6.864618 -5.826292 0.000000 0.000000 0.000000 1.425082 0.345690 2.584650 2.183672 -15.157960 -12.581715 -0.853229 0.692670 -1.894325 5.456058 -1.044497 -70.933065 -1.592400 -0.669047 -0.075251 0.000000 0.000000 0.000000 1.630482 0.125501 2.944462 2.043598 7.689070 18.442769 0.092866 3.402026 -2.124003 26.838346 5.478272 57.433722 0.523983 5.430084 0.569477 0.000000 0.000000 0.000000 
0.089840 90.476334 0.045250 0.000000 0.000000 0.000000 -5.578754 2.825408 -0.778033 -19.248047 12.977085 16.164823 27.395406 1.201589 4.831658 -4.119895 -7.396224 -9.865734 -1.666526 0.321938 -1.503951 0.000000 0.000000 0.000000 -5.826634 4.471635 -0.690146 3.365279 -9.758623 2.138173 17.149043 -7.921067 -6.723952 -11.875290 -13.328604 6.197387 -6.259130 0.398780 0.533669 0.000000 0.000000 0.000000 -5.058561 3.322722 -0.997051 2.535400 0.338089 3.860136 2.679868 0.142484 2.856266 0.883423 -0.708161 -0.143842 0.000000 0.000000 0.000000 2.079615 0.229286 2.896278 11.134162 0.223186 -0.763064 0.088042 -5.531791 -5.229956 0.000000 0.000000 0.000000 1.482300 0.260704 2.567254 2.227805 -15.188051 -12.592360 -1.074161 0.737695 -1.764674 5.922885 -1.035173 -71.238443 -1.612733 -0.676996 -0.123043 0.000000 0.000000 0.000000 1.709572 0.062676 2.967473 2.003062 7.737869 18.447412 0.141045 3.251733 -2.072918 25.108600 4.546462 57.294311 0.410508 4.794865 0.641347 0.000000 0.000000 0.000000 
0.121902 90.690353 0.008995 0.000000 0.000000 0.000000 -5.230165 1.665298 -1.010139 -18.712760 13.117733 16.253036 26.912472 0.889144 4.568487 -4.527218 -5.862596 -9.989597 -1.637239 0.297302 -1.531522 0.000000 0.000000 0.000000 -5.480588 3.274546 -0.934488 2.618326 -9.927075 1.925467 16.890325 -7.915129 -6.461610 -11.403102 -11.925632 6.124499 -6.194682 0.401415 0.595235 0.000000 0.000000 0.000000 -4.735111 2.162266 -1.237354 2.543418 0.303685 3.853398 2.814116 0.079783 2.864148 0.836900 -0.634622 -0.130664 0.000000 0.000000 0.000000 2.169299 0.167354 2.911858 10.742492 0.464479 -0.562002 -0.641014 -4.215349 -4.620805 0.000000 0.000000 0.000000 1.563414 0.199516 2.555291 2.289620 -15.176440 -12.500147 -1.299348 0.683747 -1.687524 6.389173 -1.411791 -71.487226 -1.658971 -0.824087 -0.197544 0.000000 0.000000 0.000000 1.782128 0.024562 2.970046 1.936445 7.915319 18.444437 0.429151 3.216864 -2.072790 22.944304 4.234620 57.110579 0.359719 4.726214 0.677838 0.000000 0.000000 0.000000 
0.148296 90.907661 -0.037582 0.000000 0.000000 0.000000 -4.900416 0.553949 -1.227937 -18.228414 13.218774 16.330574 26.428843 0.554108 4.319805 -4.788087 -4.420481 -10.154532 -1.590442 0.270983 -1.549242 0.000000 0.000000 0.000000 -5.159530 2.104506 -1.166090 1.930931 -10.079197 1.717453 16.578794 -7.944096 -6.177278 -10.903473 -10.521749 6.032706 -6.105067 0.393306 0.643775 0.000000 0.000000 0.000000 -4.463993 1.011925 -1.467573 2.550763 0.272407 3.836519 2.934520 0.016049 2.858975 0.816989 -0.680203 -0.136809 0.000000 0.000000 0.000000 2.257218 0.124717 2.901822 10.395794 0.691635 -0.350491 -1.302475 -2.957495 -3.999434 0.000000 0.000000 0.000000 1.662627 0.148534 2.539421 2.359302 -15.159989 -12.349015 -1.478884 0.577399 -1.636750 6.777235 -2.092856 -71.659476 -1.717353 -1.051121 -0.272011 0.000000 0.000000 0.000000 1.858787 -0.002298 2.956116 1.862365 8.181979 18.387228 0.762472 3.187438 -2.076578 20.758769 4.913605 56.840930 0.387183 5.207629 0.665602 0.000000 0.000000 0.000000 
0.174112 91.130066 -0.083534 0.000000 0.000000 0.000000 -4.590676 -0.476934 -1.426225 -17.793027 13.325623 16.382347 25.898013 0.245315 4.090956 -4.920684 -3.097230 -10.303557 -1.471127 0.244786 -1.571253 0.000000 0.000000 0.000000 -4.864903 0.992835 -1.379403 1.316659 -10.193824 1.507805 16.199004 -8.002948 -5.884606 -10.372202 -9.163890 5.924582 -5.970440 0.382294 0.673903 0.000000 0.000000 0.000000 -4.229736 -0.079819 -1.670414 2.553091 0.244967 3.814863 3.038490 -0.047176 2.842626 0.859165 -0.762554 -0.135973 0.000000 0.000000 0.000000 2.333601 0.091677 2.867110 10.116175 0.896371 -0.146790 -1.896594 -1.788538 -3.381164 0.000000 0.000000 0.000000 1.775184 0.101391 2.517906 2.426006 -15.157102 -12.201857 -1.624839 0.480983 -1.638111 7.010869 -2.994925 -71.749983 -1.771913 -1.214941 -0.321249 0.000000 0.000000 0.000000 1.948540 -0.025196 2.927042 1.794721 8.515221 18.249016 1.017254 3.183107 -2.056306 18.849717 6.517527 56.566165 0.438251 6.122042 0.600604 0.000000 0.000000 0.000000 
0.203845 91.354202 -0.132381 0.000000 0.000000 0.000000 -4.303733 -1.398348 -1.605538 -17.400991 13.468954 16.394122 25.288564 0.011079 3.883701 -4.970027 -1.908579 -10.393756 -1.303567 0.222948 -1.607452 0.000000 0.000000 0.000000 -4.591489 -0.001600 -1.574651 0.797669 -10.250791 1.307192 15.772669 -8.079894 -5.602674 -9.791895 -7.897202 5.809068 -5.842291 0.372496 0.684451 0.000000 0.000000 0.000000 -4.005433 -1.078764 -1.843393 2.549342 0.227914 3.796982 3.115116 -0.104565 2.819905 0.913742 -0.810611 -0.120192 0.000000 0.000000 0.000000 2.387503 0.061361 2.816692 9.893882 1.075724 0.030416 -2.436053 -0.741802 -2.774491 0.000000 0.000000 0.000000 1.879126 0.054773 2.491047 2.470215 -15.195610 -12.113329 -1.746667 0.422403 -1.646672 7.033163 -4.101561 -71.749184 -1.798997 -1.208425 -0.332545 0.000000 0.000000 0.000000 2.038206 -0.044524 2.891860 1.739357 8.958865 18.049992 1.034854 3.117935 -1.994594 17.247710 8.846912 56.343132 0.482510 7.139484 0.496675 0.000000 0.000000 0.000000 
